<svg width="35" height="35" viewBox="0 0 35 35" fill="none" xmlns="http://www.w3.org/2000/svg">
<path fill-rule="evenodd" clip-rule="evenodd" d="M7.29163 16.0417V18.9583C7.29163 23.7908 11.2091 27.7083 16.0416 27.7083H18.9583C23.7908 27.7083 27.7083 23.7908 27.7083 18.9583V16.0417C27.7083 11.2092 23.7908 7.29167 18.9583 7.29167H16.0416C11.2091 7.29167 7.29163 11.2092 7.29163 16.0417Z" stroke="black" stroke-width="1.5" stroke-linecap="round" stroke-linejoin="round"/>
<path d="M16.75 23.3333C16.75 23.7476 17.0857 24.0833 17.5 24.0833C17.9142 24.0833 18.25 23.7476 18.25 23.3333H16.75ZM17.5 16.0417H18.25C18.25 15.6275 17.9142 15.2917 17.5 15.2917V16.0417ZM16.0416 15.2917C15.6274 15.2917 15.2916 15.6275 15.2916 16.0417C15.2916 16.4559 15.6274 16.7917 16.0416 16.7917V15.2917ZM17.5 24.0833C17.9142 24.0833 18.25 23.7476 18.25 23.3333C18.25 22.9191 17.9142 22.5833 17.5 22.5833V24.0833ZM16.0416 22.5833C15.6274 22.5833 15.2916 22.9191 15.2916 23.3333C15.2916 23.7476 15.6274 24.0833 16.0416 24.0833V22.5833ZM17.5 22.5833C17.0857 22.5833 16.75 22.9191 16.75 23.3333C16.75 23.7476 17.0857 24.0833 17.5 24.0833V22.5833ZM18.9583 24.0833C19.3725 24.0833 19.7083 23.7476 19.7083 23.3333C19.7083 22.9191 19.3725 22.5833 18.9583 22.5833V24.0833ZM18.25 11.6667C18.25 11.2525 17.9142 10.9167 17.5 10.9167C17.0857 10.9167 16.75 11.2525 16.75 11.6667H18.25ZM16.75 13.125C16.75 13.5392 17.0857 13.875 17.5 13.875C17.9142 13.875 18.25 13.5392 18.25 13.125H16.75ZM18.25 23.3333V16.0417H16.75V23.3333H18.25ZM17.5 15.2917H16.0416V16.7917H17.5V15.2917ZM17.5 22.5833H16.0416V24.0833H17.5V22.5833ZM17.5 24.0833H18.9583V22.5833H17.5V24.0833ZM16.75 11.6667V13.125H18.25V11.6667H16.75Z" fill="black"/>
</svg>
