<svg width="35" height="35" viewBox="0 0 35 35" fill="none" xmlns="http://www.w3.org/2000/svg">
<rect width="35" height="35" rx="15" fill="#3D3A3A" fill-opacity="0.8"/>
<path d="M15.4652 10.7514C15.7651 10.4658 15.7767 9.99104 15.491 9.69109C15.2054 9.39115 14.7306 9.37957 14.4307 9.66523L15.4652 10.7514ZM6.77445 16.9569C6.4745 17.2426 6.46292 17.7173 6.74858 18.0172C7.03425 18.3172 7.50898 18.3288 7.80893 18.0431L6.77445 16.9569ZM7.80893 16.9569C7.50898 16.6712 7.03425 16.6828 6.74858 16.9828C6.46292 17.2827 6.4745 17.7574 6.77445 18.0431L7.80893 16.9569ZM14.4307 25.3348C14.7306 25.6204 15.2054 25.6089 15.491 25.3089C15.7767 25.009 15.7651 24.5342 15.4652 24.2486L14.4307 25.3348ZM7.29169 16.75C6.87747 16.75 6.54169 17.0858 6.54169 17.5C6.54169 17.9142 6.87747 18.25 7.29169 18.25V16.75ZM27.7084 18.25C28.1226 18.25 28.4584 17.9142 28.4584 17.5C28.4584 17.0858 28.1226 16.75 27.7084 16.75V18.25ZM14.4307 9.66523L6.77445 16.9569L7.80893 18.0431L15.4652 10.7514L14.4307 9.66523ZM6.77445 18.0431L14.4307 25.3348L15.4652 24.2486L7.80893 16.9569L6.77445 18.0431ZM7.29169 18.25H27.7084V16.75H7.29169V18.25Z" fill="white"/>
</svg>
