<svg width="3" height="7" viewBox="0 0 3 7" fill="none" xmlns="http://www.w3.org/2000/svg">
<path id="Vector" d="M0.497723 6.49997C0.561743 6.50019 0.624999 6.48606 0.682841 6.45862C0.740684 6.43118 0.791644 6.39113 0.831977 6.34141L2.90178 3.77023C2.96481 3.69355 2.99927 3.59737 2.99927 3.49811C2.99927 3.39885 2.96481 3.30267 2.90178 3.22599L0.759127 0.654808C0.686388 0.567295 0.581865 0.512261 0.46855 0.501813C0.355235 0.491366 0.242411 0.526361 0.154898 0.599099C0.0673847 0.671837 0.012351 0.776361 0.00190353 0.889675C-0.00854397 1.00299 0.0264506 1.11581 0.0991888 1.20333L2.01472 3.50025L0.163469 5.79718C0.111067 5.86008 0.0777795 5.93668 0.0675464 6.0179C0.0573134 6.09913 0.0705621 6.18159 0.105726 6.25553C0.140889 6.32946 0.196495 6.39177 0.265965 6.43509C0.335434 6.47841 0.415859 6.50093 0.497723 6.49997Z" fill="#89807A"/>
</svg>
