<svg width="40" height="40" viewBox="0 0 40 40" fill="none" xmlns="http://www.w3.org/2000/svg">
<path fill-rule="evenodd" clip-rule="evenodd" d="M8.33333 15C8.33333 11.3181 11.3181 8.33334 15 8.33334H25C28.6819 8.33334 31.6667 11.3181 31.6667 15V25C31.6667 28.6819 28.6819 31.6667 25 31.6667H15C11.3181 31.6667 8.33333 28.6819 8.33333 25V15Z" stroke="black" stroke-width="1.5" stroke-linecap="round" stroke-linejoin="round"/>
<path d="M26.6667 15.75C27.0809 15.75 27.4167 15.4142 27.4167 15C27.4167 14.5858 27.0809 14.25 26.6667 14.25V15.75ZM13.3333 14.25C12.9191 14.25 12.5833 14.5858 12.5833 15C12.5833 15.4142 12.9191 15.75 13.3333 15.75V14.25ZM25 20.75C25.4142 20.75 25.75 20.4142 25.75 20C25.75 19.5858 25.4142 19.25 25 19.25V20.75ZM15 19.25C14.5858 19.25 14.25 19.5858 14.25 20C14.25 20.4142 14.5858 20.75 15 20.75V19.25ZM23.3333 25.75C23.7476 25.75 24.0833 25.4142 24.0833 25C24.0833 24.5858 23.7476 24.25 23.3333 24.25V25.75ZM16.6667 24.25C16.2525 24.25 15.9167 24.5858 15.9167 25C15.9167 25.4142 16.2525 25.75 16.6667 25.75V24.25ZM26.6667 14.25H13.3333V15.75H26.6667V14.25ZM25 19.25H15V20.75H25V19.25ZM23.3333 24.25H16.6667V25.75H23.3333V24.25Z" fill="black"/>
</svg>
