<svg width="22" height="22" viewBox="0 0 22 22" fill="none" xmlns="http://www.w3.org/2000/svg">
<g id="Vector">
<path id="Vector-19" fill-rule="evenodd" clip-rule="evenodd" d="M1.0835 6.75004C1.0835 3.62043 3.62055 1.08337 6.75016 1.08337H15.2502C18.3798 1.08337 20.9168 3.62043 20.9168 6.75004V15.25C20.9168 18.3797 18.3798 20.9167 15.2502 20.9167H6.75016C3.62055 20.9167 1.0835 18.3797 1.0835 15.25V6.75004Z" stroke="#24C690" stroke-width="1.5" stroke-linecap="round" stroke-linejoin="round"/>
<path id="Vector-20" d="M16.6668 7.5C17.081 7.5 17.4168 7.16421 17.4168 6.75C17.4168 6.33579 17.081 6 16.6668 6V7.5ZM5.3335 6C4.91928 6 4.5835 6.33579 4.5835 6.75C4.5835 7.16421 4.91928 7.5 5.3335 7.5V6ZM15.2502 11.75C15.6644 11.75 16.0002 11.4142 16.0002 11C16.0002 10.5858 15.6644 10.25 15.2502 10.25V11.75ZM6.75016 10.25C6.33595 10.25 6.00016 10.5858 6.00016 11C6.00016 11.4142 6.33595 11.75 6.75016 11.75V10.25ZM13.8335 16C14.2477 16 14.5835 15.6642 14.5835 15.25C14.5835 14.8358 14.2477 14.5 13.8335 14.5V16ZM8.16683 14.5C7.75262 14.5 7.41683 14.8358 7.41683 15.25C7.41683 15.6642 7.75262 16 8.16683 16V14.5ZM16.6668 6H5.3335V7.5H16.6668V6ZM15.2502 10.25H6.75016V11.75H15.2502V10.25ZM13.8335 14.5H8.16683V16H13.8335V14.5Z" fill="#24C690"/>
</g>
</svg>
