<svg width="35" height="35" viewBox="0 0 35 35" fill="none" xmlns="http://www.w3.org/2000/svg">
<path fill-rule="evenodd" clip-rule="evenodd" d="M27.7009 18.4508C27.8305 19.2888 27.7539 20.1457 27.4778 20.9475C27.3118 21.2319 27.0791 21.4717 26.7997 21.646C26.4147 21.8575 26.2703 21.8706 24.3205 21.875C23.6043 21.9463 22.8817 21.9163 22.1739 21.786C21.7226 21.6489 21.3512 21.3258 21.153 20.8979C20.9632 20.3691 20.8988 19.8035 20.9649 19.2456V18.5616C20.9633 18.3807 20.8457 18.2213 20.6732 18.1664C18.627 17.6314 16.4779 17.6284 14.4301 18.1577C14.2027 18.2267 14.0459 18.4348 14.0422 18.6725V19.3229C14.0471 19.733 14.0281 20.143 13.9853 20.5508C13.851 21.1216 13.4322 21.5829 12.877 21.7714C12.1676 21.9199 11.4391 21.9554 10.7187 21.8764C8.89282 21.8764 8.8374 21.8764 8.53115 21.77C7.99573 21.6128 7.57873 21.1914 7.42719 20.6543C7.30493 20.1785 7.26497 19.6853 7.30907 19.196C7.30907 18.5675 7.30907 17.9812 7.30907 17.8952C7.37849 17.1164 7.74891 16.3955 8.34157 15.8856C9.43782 14.9712 10.7211 14.3082 12.1012 13.9431C15.056 13.0335 18.1918 12.8796 21.2216 13.4954C21.8651 13.6128 22.4988 13.7785 23.1174 13.9912C24.5927 14.3799 25.9349 15.1616 27.0009 16.2531C27.5245 16.8594 27.7774 17.6534 27.7009 18.4508V18.4508Z" stroke="black" stroke-width="1.5" stroke-linecap="round" stroke-linejoin="round"/>
</svg>
