<svg width="35" height="35" viewBox="0 0 35 35" fill="none" xmlns="http://www.w3.org/2000/svg">
<path fill-rule="evenodd" clip-rule="evenodd" d="M25.0833 7.47773L27.3671 9.29627C27.5876 9.50384 27.7119 9.79375 27.7103 10.0966C27.7086 10.3995 27.5811 10.688 27.3583 10.8931L25.6229 12.9698L19.7181 20.0121C19.6148 20.1304 19.4772 20.2135 19.3244 20.2498L16.2619 20.944C15.8601 20.9641 15.5103 20.6721 15.4583 20.2731V17.1261C15.4687 16.9743 15.5299 16.8305 15.6319 16.7177L21.4273 10.1654L23.4164 7.78981C23.81 7.27397 24.5298 7.1392 25.0833 7.47773Z" stroke="black" stroke-width="1.5" stroke-linecap="round" stroke-linejoin="round"/>
<path d="M16.819 10.7667C17.2332 10.7667 17.569 10.4309 17.569 10.0167C17.569 9.60248 17.2332 9.26669 16.819 9.26669V10.7667ZM12.7357 10.0167V9.26669L12.7339 9.2667L12.7357 10.0167ZM7.2917 15.4854H8.0417L8.0417 15.4838L7.2917 15.4854ZM7.2917 23.6886L8.0417 23.6902V23.6886H7.2917ZM12.7357 29.1573L12.7339 29.9073H12.7357V29.1573ZM20.9023 29.1573V29.9073L20.9041 29.9073L20.9023 29.1573ZM26.3463 23.6886H25.5963L25.5963 23.6902L26.3463 23.6886ZM27.0963 18.2198C27.0963 17.8056 26.7605 17.4698 26.3463 17.4698C25.9321 17.4698 25.5963 17.8056 25.5963 18.2198H27.0963ZM22.1206 9.87926C21.9625 9.49638 21.524 9.31414 21.1411 9.47219C20.7583 9.63025 20.576 10.0688 20.7341 10.4516L22.1206 9.87926ZM25.7848 13.6963C26.1893 13.6069 26.4447 13.2065 26.3553 12.8021C26.2659 12.3976 25.8655 12.1423 25.4611 12.2317L25.7848 13.6963ZM11.375 24.3065C10.9608 24.3065 10.625 24.6423 10.625 25.0565C10.625 25.4707 10.9608 25.8065 11.375 25.8065V24.3065ZM22.2644 25.8065C22.6786 25.8065 23.0144 25.4707 23.0144 25.0565C23.0144 24.6423 22.6786 24.3065 22.2644 24.3065V25.8065ZM16.819 9.26669H12.7357V10.7667H16.819V9.26669ZM12.7339 9.2667C9.30642 9.27493 6.53436 12.0596 6.5417 15.487L8.0417 15.4838C8.03613 12.8847 10.1383 10.7729 12.7375 10.7667L12.7339 9.2667ZM6.5417 15.4854V23.6886H8.0417V15.4854H6.5417ZM6.5417 23.687C6.53436 27.1144 9.30642 29.8991 12.7339 29.9073L12.7375 28.4073C10.1383 28.4011 8.03613 26.2893 8.0417 23.6902L6.5417 23.687ZM12.7357 29.9073H20.9023V28.4073H12.7357V29.9073ZM20.9041 29.9073C24.3316 29.8991 27.1036 27.1144 27.0963 23.687L25.5963 23.6902C25.6018 26.2893 23.4997 28.4011 20.9005 28.4073L20.9041 29.9073ZM27.0963 23.6886V18.2198H25.5963V23.6886H27.0963ZM20.7341 10.4516C21.0028 11.1025 21.5549 12.0303 22.3728 12.7419C23.2042 13.4654 24.3704 14.009 25.7848 13.6963L25.4611 12.2317C24.6457 12.4119 23.9489 12.125 23.3574 11.6103C22.7523 11.0838 22.3215 10.3659 22.1206 9.87926L20.7341 10.4516ZM11.375 25.8065H22.2644V24.3065H11.375V25.8065Z" fill="black"/>
</svg>
