<svg width="24" height="24" viewBox="0 0 24 24" fill="none" xmlns="http://www.w3.org/2000/svg">
<path d="M13 8.5C12.2044 8.5 11.4413 8.81607 10.8787 9.37868C10.3161 9.94129 10 10.7044 10 11.5C10 12.2956 10.3161 13.0587 10.8787 13.6213C11.4413 14.1839 12.2044 14.5 13 14.5C13.7956 14.5 14.5587 14.1839 15.1213 13.6213C15.6839 13.0587 16 12.2956 16 11.5C16 10.7044 15.6839 9.94129 15.1213 9.37868C14.5587 8.81607 13.7956 8.5 13 8.5ZM13 16.5C11.6739 16.5 10.4021 15.9732 9.46447 15.0355C8.52678 14.0979 8 12.8261 8 11.5C8 10.1739 8.52678 8.90215 9.46447 7.96447C10.4021 7.02678 11.6739 6.5 13 6.5C14.3261 6.5 15.5979 7.02678 16.5355 7.96447C17.4732 8.90215 18 10.1739 18 11.5C18 12.8261 17.4732 14.0979 16.5355 15.0355C15.5979 15.9732 14.3261 16.5 13 16.5ZM13 4C8 4 3.73 7.11 2 11.5C3.73 15.89 8 19 13 19C18 19 22.27 15.89 24 11.5C22.27 7.11 18 4 13 4Z" fill="black"/>
</svg>
