<svg width="35" height="35" viewBox="0 0 35 35" fill="none" xmlns="http://www.w3.org/2000/svg">
<path fill-rule="evenodd" clip-rule="evenodd" d="M26.2603 28.9523V8.79958C26.2669 8.01945 25.9633 7.26865 25.4163 6.71237C24.8693 6.15608 24.1237 5.83988 23.3436 5.83333H11.6769C10.8968 5.83988 10.1512 6.15608 9.60425 6.71237C9.05727 7.26865 8.75368 8.01945 8.76028 8.79958V28.9523C8.69095 29.5342 8.97664 30.101 9.4856 30.3915C9.99457 30.6819 10.6279 30.6395 11.0936 30.2837L16.6353 25.499C17.1348 25.0481 17.8945 25.0481 18.394 25.499L23.9269 30.2852C24.3928 30.6412 25.0266 30.6836 25.5358 30.3927C26.0449 30.1019 26.3303 29.5344 26.2603 28.9523Z" stroke="black" stroke-width="1.5" stroke-linecap="round" stroke-linejoin="round"/>
</svg>
