<svg width="20" height="27" viewBox="0 0 20 27" fill="none" xmlns="http://www.w3.org/2000/svg">
<g id="Vector">
<path id="Rectangle_18260" fill-rule="evenodd" clip-rule="evenodd" d="M18.51 24.125V4.54813C18.5164 3.79028 18.2215 3.06094 17.6901 2.52054C17.1588 1.98015 16.4345 1.67299 15.6767 1.66663H4.34332C3.58548 1.67299 2.8612 1.98015 2.32985 2.52054C1.79849 3.06094 1.50357 3.79028 1.50999 4.54813V24.125C1.44264 24.6903 1.72016 25.241 2.21459 25.5231C2.70901 25.8052 3.32428 25.764 3.77665 25.4185L9.15999 20.7704C9.64528 20.3324 10.3832 20.3324 10.8685 20.7704L16.2433 25.4199C16.6959 25.7657 17.3116 25.8068 17.8062 25.5243C18.3007 25.2418 18.578 24.6905 18.51 24.125Z" stroke="#24C690" stroke-width="1.5" stroke-linecap="round" stroke-linejoin="round"/>
</g>
</svg>
