<svg width="24" height="24" viewBox="0 0 24 24" fill="none" xmlns="http://www.w3.org/2000/svg">
<g id="Vector">
<path id="Vector-14" fill-rule="evenodd" clip-rule="evenodd" d="M8.67236 13.2261C8.67236 11.5496 10.0314 10.1906 11.7079 10.1906C13.3844 10.1906 14.7434 11.5496 14.7434 13.2261C14.7434 14.9025 13.3844 16.2616 11.7079 16.2616C10.9028 16.2616 10.1307 15.9418 9.56145 15.3725C8.99218 14.8032 8.67236 14.0311 8.67236 13.2261Z" stroke="black" stroke-width="1.5" stroke-linecap="round" stroke-linejoin="round"/>
<path id="Vector-15" fill-rule="evenodd" clip-rule="evenodd" d="M4.31177 4.23034L8.45829 1.92335C10.4804 0.803384 12.9367 0.803384 14.9589 1.92335L19.1054 4.23034C21.0842 5.31212 22.3199 7.3829 22.3321 9.63812V15.9854C22.2789 19.5435 19.3518 22.385 15.7936 22.3327H7.62201C4.06387 22.385 1.13675 19.5435 1.0835 15.9854V9.63812C1.09608 7.38258 2.33232 5.31172 4.31177 4.23034Z" stroke="black" stroke-width="1.5" stroke-linecap="round" stroke-linejoin="round"/>
</g>
</svg>
