<svg width="40" height="40" viewBox="0 0 40 40" fill="none" xmlns="http://www.w3.org/2000/svg">
<path fill-rule="evenodd" clip-rule="evenodd" d="M17.2614 22.6189C17.2614 20.6466 18.8602 19.0477 20.8326 19.0477C22.8049 19.0477 24.4038 20.6466 24.4038 22.6189C24.4038 24.5912 22.8049 26.1901 20.8326 26.1901C19.8854 26.1901 18.9771 25.8138 18.3073 25.1441C17.6376 24.4744 17.2614 23.566 17.2614 22.6189Z" stroke="#24C690" stroke-width="1.5" stroke-linecap="round" stroke-linejoin="round"/>
<path fill-rule="evenodd" clip-rule="evenodd" d="M12.1313 12.0356L17.0096 9.32153C19.3885 8.00393 22.2783 8.00393 24.6573 9.32153L29.5355 12.0356C31.8636 13.3083 33.3173 15.7445 33.3317 18.3977V25.8651C33.2691 30.0511 29.8254 33.3941 25.6394 33.3325H16.0257C11.8397 33.3941 8.39598 30.0511 8.33333 25.8651V18.3977C8.34814 15.7442 9.80253 13.3079 12.1313 12.0356Z" stroke="#24C690" stroke-width="1.5" stroke-linecap="round" stroke-linejoin="round"/>
</svg>
