<svg width="35" height="35" viewBox="0 0 35 35" fill="none" xmlns="http://www.w3.org/2000/svg">
<path fill-rule="evenodd" clip-rule="evenodd" d="M21.4259 7.29167H13.5743C11.8988 7.30093 10.2956 7.97541 9.11736 9.16674C7.93916 10.3581 7.28248 11.9687 7.29178 13.6442V21.3558C7.28248 23.0314 7.93916 24.6419 9.11736 25.8333C10.2956 27.0246 11.8988 27.6991 13.5743 27.7083H21.4259C23.1015 27.6991 24.7047 27.0246 25.8829 25.8333C27.0611 24.6419 27.7178 23.0314 27.7084 21.3558V13.6442C27.7178 11.9687 27.0611 10.3581 25.8829 9.16674C24.7047 7.97541 23.1015 7.30093 21.4259 7.29167Z" stroke="black" stroke-width="1.5" stroke-linecap="round" stroke-linejoin="round"/>
<path d="M11.6669 13.4688C11.2527 13.4688 10.9169 13.8045 10.9169 14.2188C10.9169 14.633 11.2527 14.9688 11.6669 14.9688V13.4688ZM17.5002 14.9688C17.9144 14.9688 18.2502 14.633 18.2502 14.2188C18.2502 13.8045 17.9144 13.4688 17.5002 13.4688V14.9688ZM16.7502 14.2188C16.7502 14.633 17.086 14.9688 17.5002 14.9688C17.9144 14.9688 18.2502 14.633 18.2502 14.2188H16.7502ZM18.2502 11.6667C18.2502 11.2525 17.9144 10.9167 17.5002 10.9167C17.086 10.9167 16.7502 11.2525 16.7502 11.6667H18.2502ZM17.5002 13.4688C17.086 13.4688 16.7502 13.8045 16.7502 14.2188C16.7502 14.633 17.086 14.9688 17.5002 14.9688V13.4688ZM22.6044 14.9688C23.0186 14.9688 23.3544 14.633 23.3544 14.2188C23.3544 13.8045 23.0186 13.4688 22.6044 13.4688V14.9688ZM22.6044 13.4688C22.1902 13.4688 21.8544 13.8045 21.8544 14.2188C21.8544 14.633 22.1902 14.9688 22.6044 14.9688V13.4688ZM23.3335 14.9688C23.7478 14.9688 24.0835 14.633 24.0835 14.2188C24.0835 13.8045 23.7478 13.4688 23.3335 13.4688V14.9688ZM23.2181 14.6499C23.4562 14.311 23.3744 13.8432 23.0355 13.6051C22.6966 13.367 22.2288 13.4487 21.9907 13.7876L23.2181 14.6499ZM16.6633 19.6262C16.3476 19.8943 16.3089 20.3676 16.577 20.6833C16.8451 20.9991 17.3184 21.0377 17.6342 20.7696L16.6633 19.6262ZM13.7686 22.0045C13.4374 22.2532 13.3705 22.7234 13.6192 23.0546C13.868 23.3858 14.3381 23.4526 14.6693 23.2039L13.7686 22.0045ZM17.6465 20.7531C17.9563 20.4782 17.9847 20.0042 17.7098 19.6943C17.4349 19.3845 16.9608 19.3562 16.651 19.6311L17.6465 20.7531ZM16.5588 20.6551C16.8145 20.981 17.286 21.0378 17.6118 20.7821C17.9376 20.5263 17.9945 20.0549 17.7387 19.729L16.5588 20.6551ZM15.9986 16.8321C15.8311 16.4533 15.3882 16.282 15.0094 16.4495C14.6305 16.617 14.4593 17.0599 14.6268 17.4388L15.9986 16.8321ZM17.7505 19.7503C17.5033 19.418 17.0335 19.3489 16.7011 19.5961C16.3688 19.8433 16.2997 20.3132 16.547 20.6455L17.7505 19.7503ZM20.4266 23.9941C20.7915 24.1901 21.2462 24.0531 21.4422 23.6882C21.6382 23.3232 21.5012 22.8686 21.1363 22.6726L20.4266 23.9941ZM11.6669 14.9688H17.5002V13.4688H11.6669V14.9688ZM18.2502 14.2188V11.6667H16.7502V14.2188H18.2502ZM17.5002 14.9688H22.6044V13.4688H17.5002V14.9688ZM22.6044 14.9688H23.3335V13.4688H22.6044V14.9688ZM21.9907 13.7876C20.47 15.9521 18.6798 17.9141 16.6633 19.6262L17.6342 20.7696C19.7478 18.9751 21.6241 16.9186 23.2181 14.6499L21.9907 13.7876ZM14.6693 23.2039C15.4066 22.6502 16.4811 21.787 17.6465 20.7531L16.651 19.6311C15.5151 20.6388 14.4722 21.4761 13.7686 22.0045L14.6693 23.2039ZM17.7387 19.729C17.0405 18.8395 16.456 17.8663 15.9986 16.8321L14.6268 17.4388C15.1346 18.587 15.7836 19.6675 16.5588 20.6551L17.7387 19.729ZM16.547 20.6455C17.5788 22.0329 18.9034 23.1761 20.4266 23.9941L21.1363 22.6726C19.807 21.9587 18.651 20.961 17.7505 19.7503L16.547 20.6455Z" fill="black"/>
</svg>
