<svg width="30" height="30" viewBox="0 0 30 30" fill="none" xmlns="http://www.w3.org/2000/svg">
<path fill-rule="evenodd" clip-rule="evenodd" d="M8.09381 15.5787C7.9488 11.6152 11.0382 8.28149 15.0013 8.125C18.9645 8.28149 22.0538 11.6152 21.9088 15.5787C21.9088 17.225 23.6976 18.8287 23.7501 20.4787C23.7501 20.5021 23.7501 20.5254 23.7501 20.5487C23.7888 21.6059 22.9646 22.4949 21.9076 22.5362H17.9176C17.9213 23.3463 17.6159 24.1273 17.0638 24.72C16.5329 25.2965 15.785 25.6245 15.0013 25.6245C14.2176 25.6245 13.4697 25.2965 12.9388 24.72C12.3867 24.1273 12.0814 23.3463 12.0851 22.5362H8.09381C7.03678 22.4949 6.2126 21.6059 6.25131 20.5487C6.25131 20.5254 6.25131 20.5021 6.25131 20.4787C6.30506 18.8337 8.09381 17.2262 8.09381 15.5787Z" stroke="black" stroke-width="1.5" stroke-linecap="round" stroke-linejoin="round"/>
<path d="M12.085 21.7863C11.6708 21.7863 11.335 22.122 11.335 22.5363C11.335 22.9505 11.6708 23.2863 12.085 23.2863V21.7863ZM17.9175 23.2863C18.3317 23.2863 18.6675 22.9505 18.6675 22.5363C18.6675 22.122 18.3317 21.7863 17.9175 21.7863V23.2863ZM16.2513 6.375C16.6655 6.375 17.0013 6.03921 17.0013 5.625C17.0013 5.21079 16.6655 4.875 16.2513 4.875V6.375ZM13.7513 4.875C13.3371 4.875 13.0013 5.21079 13.0013 5.625C13.0013 6.03921 13.3371 6.375 13.7513 6.375V4.875ZM12.085 23.2863H17.9175V21.7863H12.085V23.2863ZM16.2513 4.875H13.7513V6.375H16.2513V4.875Z" fill="black"/>
</svg>
