<svg width="35" height="35" viewBox="0 0 35 35" fill="none" xmlns="http://www.w3.org/2000/svg">
<circle cx="17.5" cy="17.5" r="17.5" fill="#3A3731" fill-opacity="0.9"/>
<path d="M23.3334 21.3333C22.6298 21.3362 21.954 21.6208 21.445 22.1288L13.3325 17.5L21.445 12.8713C22.3941 13.8085 23.8427 13.9189 24.9118 13.1355C25.9808 12.3521 26.3757 10.8908 25.8568 9.63841C25.3378 8.38599 24.0482 7.68764 22.7703 7.9671C21.4924 8.24656 20.5786 9.42681 20.5834 10.7917C20.5744 10.9161 20.5744 11.041 20.5834 11.1654L11.9667 16.0913C11.4822 15.1901 10.5722 14.6302 9.58337 14.625C8.06459 14.625 6.83337 15.9122 6.83337 17.5C6.83337 19.0878 8.06459 20.375 9.58337 20.375C10.5722 20.3698 11.4822 19.8099 11.9667 18.9088L20.5834 23.8346C20.5744 23.959 20.5744 24.0839 20.5834 24.2083C20.5834 25.7962 21.8146 27.0833 23.3334 27.0833C24.8522 27.0833 26.0834 25.7962 26.0834 24.2083C26.0834 22.6205 24.8522 21.3333 23.3334 21.3333Z" fill="white"/>
</svg>
