<svg width="35" height="35" viewBox="0 0 35 35" fill="none" xmlns="http://www.w3.org/2000/svg">
<path d="M9.47724 13.8339C9.86873 13.4443 9.87031 12.8112 9.48076 12.4197C9.09122 12.0282 8.45805 12.0266 8.06656 12.4161L9.47724 13.8339ZM3.66968 16.7911C3.27818 17.1807 3.2766 17.8138 3.66615 18.2053C4.0557 18.5968 4.68887 18.5984 5.08036 18.2089L3.66968 16.7911ZM5.08036 16.7911C4.68887 16.4016 4.0557 16.4032 3.66615 16.7947C3.2766 17.1862 3.27818 17.8193 3.66968 18.2089L5.08036 16.7911ZM8.06656 22.5839C8.45805 22.9734 9.09122 22.9718 9.48076 22.5803C9.87031 22.1888 9.86873 21.5557 9.47724 21.1661L8.06656 22.5839ZM4.37502 16.5C3.82274 16.5 3.37502 16.9477 3.37502 17.5C3.37502 18.0523 3.82274 18.5 4.37502 18.5V16.5ZM24.7917 18.5C25.344 18.5 25.7917 18.0523 25.7917 17.5C25.7917 16.9477 25.344 16.5 24.7917 16.5V18.5ZM8.06656 12.4161L3.66968 16.7911L5.08036 18.2089L9.47724 13.8339L8.06656 12.4161ZM3.66968 18.2089L8.06656 22.5839L9.47724 21.1661L5.08036 16.7911L3.66968 18.2089ZM4.37502 18.5L24.7917 18.5V16.5L4.37502 16.5V18.5Z" fill="black"/>
<path d="M13.125 21.875C13.125 25.0967 15.7367 27.7083 18.9583 27.7083H24.7917C28.0133 27.7083 30.625 25.0967 30.625 21.875V13.125C30.625 9.90334 28.0133 7.29167 24.7917 7.29167H18.9583C15.7367 7.29167 13.125 9.90334 13.125 13.125" stroke="black" stroke-width="2" stroke-linecap="round" stroke-linejoin="round"/>
</svg>
