<svg width="30" height="30" viewBox="0 0 30 30" fill="none" xmlns="http://www.w3.org/2000/svg">
<path fill-rule="evenodd" clip-rule="evenodd" d="M13.3625 9.81246C13.9918 8.86676 13.8336 7.60288 12.9908 6.8414C12.1479 6.07993 10.8745 6.0505 9.99733 6.77223C9.12018 7.49396 8.90382 8.74919 9.48871 9.72294C10.0736 10.6967 11.2834 11.0953 12.3325 10.66C12.7518 10.485 13.1101 10.1902 13.3625 9.81246Z" stroke="#746E6E" stroke-width="1.5" stroke-linecap="round" stroke-linejoin="round"/>
<path fill-rule="evenodd" clip-rule="evenodd" d="M13.3625 22.7062C13.9918 21.7605 13.8336 20.4966 12.9908 19.7352C12.1479 18.9737 10.8745 18.9443 9.99733 19.666C9.12018 20.3877 8.90382 21.6429 9.48871 22.6167C10.0736 23.5904 11.2834 23.989 12.3325 23.5537C12.7518 23.3788 13.1101 23.0839 13.3625 22.7062V22.7062Z" stroke="#746E6E" stroke-width="1.5" stroke-linecap="round" stroke-linejoin="round"/>
<path fill-rule="evenodd" clip-rule="evenodd" d="M16.6375 16.2587C16.0083 15.313 16.1664 14.0491 17.0093 13.2876C17.8522 12.5262 19.1256 12.4967 20.0027 13.2185C20.8799 13.9402 21.0962 15.1954 20.5113 16.1692C19.9264 17.1429 18.7167 17.5415 17.6675 17.1062C17.2482 16.9312 16.8899 16.6364 16.6375 16.2587V16.2587Z" stroke="#746E6E" stroke-width="1.5" stroke-linecap="round" stroke-linejoin="round"/>
<path d="M13.75 7.78249C13.3358 7.78249 13 8.11827 13 8.53249C13 8.9467 13.3358 9.28249 13.75 9.28249V7.78249ZM23.75 9.28249C24.1642 9.28249 24.5 8.9467 24.5 8.53249C24.5 8.11827 24.1642 7.78249 23.75 7.78249V9.28249ZM9.15875 9.28249C9.57296 9.28249 9.90875 8.9467 9.90875 8.53249C9.90875 8.11827 9.57296 7.78249 9.15875 7.78249V9.28249ZM6.25 7.78249C5.83579 7.78249 5.5 8.11827 5.5 8.53249C5.5 8.9467 5.83579 9.28249 6.25 9.28249V7.78249ZM13.75 20.6775C13.3358 20.6775 13 21.0133 13 21.4275C13 21.8417 13.3358 22.1775 13.75 22.1775V20.6775ZM23.75 22.1775C24.1642 22.1775 24.5 21.8417 24.5 21.4275C24.5 21.0133 24.1642 20.6775 23.75 20.6775V22.1775ZM9.15875 22.1775C9.57296 22.1775 9.90875 21.8417 9.90875 21.4275C9.90875 21.0133 9.57296 20.6775 9.15875 20.6775V22.1775ZM6.25 20.6775C5.83579 20.6775 5.5 21.0133 5.5 21.4275C5.5 21.8417 5.83579 22.1775 6.25 22.1775V20.6775ZM16.25 15.73C16.6642 15.73 17 15.3942 17 14.98C17 14.5658 16.6642 14.23 16.25 14.23V15.73ZM6.25 14.23C5.83579 14.23 5.5 14.5658 5.5 14.98C5.5 15.3942 5.83579 15.73 6.25 15.73V14.23ZM20.8413 14.23C20.427 14.23 20.0913 14.5658 20.0913 14.98C20.0913 15.3942 20.427 15.73 20.8413 15.73V14.23ZM23.75 15.73C24.1642 15.73 24.5 15.3942 24.5 14.98C24.5 14.5658 24.1642 14.23 23.75 14.23V15.73ZM13.75 9.28249H23.75V7.78249H13.75V9.28249ZM9.15875 7.78249H6.25V9.28249H9.15875V7.78249ZM13.75 22.1775H23.75V20.6775H13.75V22.1775ZM9.15875 20.6775H6.25V22.1775H9.15875V20.6775ZM16.25 14.23H6.25V15.73H16.25V14.23ZM20.8413 15.73H23.75V14.23H20.8413V15.73Z" fill="#746E6E"/>
</svg>
