<svg width="35" height="35" viewBox="0 0 35 35" fill="none" xmlns="http://www.w3.org/2000/svg">
<path fill-rule="evenodd" clip-rule="evenodd" d="M13.2493 26.2238L10.6724 27.5363C10.5723 27.5861 10.4534 27.5802 10.3587 27.5206C10.264 27.461 10.2071 27.3565 10.2087 27.2446V8.68438C10.1932 7.93101 10.7911 7.30761 11.5445 7.29167H24.913C25.6664 7.30761 26.2643 7.93101 26.2489 8.68438V27.2446C26.2504 27.3565 26.1936 27.461 26.0989 27.5206C26.0042 27.5802 25.8853 27.5861 25.7851 27.5363L23.2082 26.2238C23.1056 26.1714 22.9826 26.1792 22.8874 26.2442L20.8137 27.6529C20.7063 27.7259 20.5652 27.7259 20.4578 27.6529L18.4074 26.2602C18.3 26.1872 18.159 26.1872 18.0516 26.2602L16.0012 27.6529C15.8938 27.7259 15.7527 27.7259 15.6453 27.6529L13.5701 26.25C13.4761 26.1831 13.353 26.1731 13.2493 26.2238Z" stroke="black" stroke-width="1.5" stroke-linecap="round" stroke-linejoin="round"/>
<path d="M14.5822 19.6667C14.1679 19.6667 13.8322 20.0025 13.8322 20.4167C13.8322 20.8309 14.1679 21.1667 14.5822 21.1667V19.6667ZM21.7484 21.1667C22.1626 21.1667 22.4984 20.8309 22.4984 20.4167C22.4984 20.0025 22.1626 19.6667 21.7484 19.6667V21.1667ZM15.8417 14.7822C15.5488 14.4893 15.0739 14.4893 14.781 14.7822C14.4881 15.0751 14.4881 15.5499 14.781 15.8428L15.8417 14.7822ZM16.7697 16.7708L16.2393 17.3012C16.5322 17.5941 17.0071 17.5941 17.3 17.3012L16.7697 16.7708ZM21.675 12.9262C21.9679 12.6333 21.9679 12.1584 21.675 11.8655C21.3821 11.5726 20.9072 11.5726 20.6143 11.8655L21.675 12.9262ZM14.5822 21.1667H21.7484V19.6667H14.5822V21.1667ZM14.781 15.8428L16.2393 17.3012L17.3 16.2405L15.8417 14.7822L14.781 15.8428ZM17.3 17.3012L21.675 12.9262L20.6143 11.8655L16.2393 16.2405L17.3 17.3012Z" fill="black"/>
</svg>
