<svg width="35" height="35" viewBox="0 0 35 35" fill="none" xmlns="http://www.w3.org/2000/svg">
<path d="M16.0215 22.6042C16.0215 23.0184 16.3573 23.3542 16.7715 23.3542C17.1857 23.3542 17.5215 23.0184 17.5215 22.6042H16.0215ZM17.5215 20.0521C17.5215 19.6379 17.1857 19.3021 16.7715 19.3021C16.3573 19.3021 16.0215 19.6379 16.0215 20.0521H17.5215ZM11.7019 12.5563C11.7019 12.9705 12.0377 13.3063 12.4519 13.3063C12.8662 13.3063 13.2019 12.9705 13.2019 12.5563H11.7019ZM12.4519 11.8854H13.2019C13.2019 11.8779 13.2018 11.8705 13.2016 11.863L12.4519 11.8854ZM16.7715 7.29167L16.7802 6.54172C16.7694 6.5416 16.7586 6.54171 16.7478 6.54205L16.7715 7.29167ZM19.8142 9.87749C20.0125 10.2412 20.468 10.3753 20.8317 10.1771C21.1954 9.97883 21.3295 9.52329 21.1313 9.1596L19.8142 9.87749ZM12.4519 12.5563L12.2595 11.8313L12.2487 11.8343L12.4519 12.5563ZM13.6857 12.3958L13.685 13.1458H13.6857V12.3958ZM19.8559 12.3958V13.1458L19.8566 13.1458L19.8559 12.3958ZM21.0896 12.5563L21.2927 11.8342L21.2821 11.8314L21.0896 12.5563ZM24.7924 17.5L24.0424 17.4918V17.5H24.7924ZM24.7924 22.6042H24.0423L24.0425 22.6165L24.7924 22.6042ZM19.8559 27.7083V28.4584L19.8686 28.4582L19.8559 27.7083ZM13.6871 27.7083L13.6744 28.4583H13.6871V27.7083ZM8.75069 22.6042L9.50069 22.6165V22.6042H8.75069ZM8.75069 17.5H9.50074L9.50064 17.4917L8.75069 17.5ZM17.5215 22.6042V20.0521H16.0215V22.6042H17.5215ZM13.2019 12.5563V11.8854H11.7019V12.5563H13.2019ZM13.2016 11.863C13.1403 9.81597 14.7483 8.10597 16.7952 8.0413L16.7478 6.54205C13.8739 6.63285 11.6163 9.03375 11.7023 11.9079L13.2016 11.863ZM16.7629 8.04162C18.0373 8.05631 19.2043 8.75845 19.8142 9.87749L21.1313 9.1596C20.2615 7.56389 18.5974 6.56267 16.7802 6.54172L16.7629 8.04162ZM12.6444 13.2811C12.9839 13.191 13.3337 13.1455 13.685 13.1458L13.6864 11.6458C13.2047 11.6454 12.725 11.7078 12.2595 11.8314L12.6444 13.2811ZM13.6857 13.1458H19.8559V11.6458H13.6857V13.1458ZM19.8566 13.1458C20.2079 13.1455 20.5577 13.191 20.8972 13.2811L21.2821 11.8314C20.8166 11.7078 20.3369 11.6454 19.8552 11.6458L19.8566 13.1458ZM20.8866 13.2782C22.77 13.808 24.0638 15.5354 24.0424 17.4918L25.5423 17.5082C25.5711 14.8738 23.8289 12.5476 21.2927 11.8343L20.8866 13.2782ZM24.0424 17.5V22.6042H25.5424V17.5H24.0424ZM24.0425 22.6165C24.0812 24.9748 22.2015 26.9184 19.8432 26.9584L19.8686 28.4582C23.0549 28.4041 25.5945 25.7782 25.5423 22.5919L24.0425 22.6165ZM19.8559 26.9583H13.6871V28.4583H19.8559V26.9583ZM13.6999 26.9584C11.3416 26.9184 9.4619 24.9748 9.50059 22.6165L8.00079 22.5919C7.94851 25.7782 10.4881 28.4041 13.6744 28.4582L13.6999 26.9584ZM9.50069 22.6042V17.5H8.00069V22.6042H9.50069ZM9.50064 17.4917C9.4791 15.5357 10.7723 13.8084 12.6552 13.2782L12.2487 11.8343C9.71313 12.5483 7.97173 14.8743 8.00074 17.5083L9.50064 17.4917Z" fill="black"/>
</svg>
